PathFileType	4	(X/Y/Z)	C:\Users\s5001683\Documents\PhD\FASHiON\BaselineData\3. CleanedGaitData\ElaboratedData\FAS-906\Session 1\staticElaborations\StaticCalibration\Static\\StaticCalibration.trc
DataRate	CameraRate	NumFrames	NumMarkers	Units	OrigDataRate	DataStartFrame
120	120	4	90	mm	120	2
Frame#	Time	RFHD			LFHD			RBHD			LBHD			C7			T10			CLAV			STRN			RASI			LASI			RPSI			LPSI			RTH1			RTH2			RTH3			RTH4			RTH5			RTH6			RMFC			RLFC			RTB1			RTB2			RTB3			RTB4			RTB5			RTB6			RMMAL			RLMAL			RCAL			RMT1			RMT23			RMT5			LMT1			LMT23			LMT5			LCAL			LMMAL			LLMAL			LTB1			LTB2			LTB3			LTB4			LTB5			LTB6			LMFC			LLFC			LTH1			LTH2			LTH3			LTH4			LTH5			LTH6			LACR			LASH			LPSH			LUA1			LUA2			LUA3			LMEL			LLEL			LFA1			LFA3			LFA2			LWRU			LWRR			RACR			RASH			RPSH			RUA1			RUA2			RUA3			RMEL			RLEL			RFA1			RFA2			RFA3			RWRU			RWRR			LAJC			RAJC			LEJC			REJC			LHJC			RHJC			LKJC			RKJC			LSJC			RSJC			LWJC			RWJC		
		X1	Y1	Z1	X2	Y2	Z2	X3	Y3	Z3	X4	Y4	Z4	X5	Y5	Z5	X6	Y6	Z6	X7	Y7	Z7	X8	Y8	Z8	X9	Y9	Z9	X10	Y10	Z10	X11	Y11	Z11	X12	Y12	Z12	X13	Y13	Z13	X14	Y14	Z14	X15	Y15	Z15	X16	Y16	Z16	X17	Y17	Z17	X18	Y18	Z18	X19	Y19	Z19	X20	Y20	Z20	X21	Y21	Z21	X22	Y22	Z22	X23	Y23	Z23	X24	Y24	Z24	X25	Y25	Z25	X26	Y26	Z26	X27	Y27	Z27	X28	Y28	Z28	X29	Y29	Z29	X30	Y30	Z30	X31	Y31	Z31	X32	Y32	Z32	X33	Y33	Z33	X34	Y34	Z34	X35	Y35	Z35	X36	Y36	Z36	X37	Y37	Z37	X38	Y38	Z38	X39	Y39	Z39	X40	Y40	Z40	X41	Y41	Z41	X42	Y42	Z42	X43	Y43	Z43	X44	Y44	Z44	X45	Y45	Z45	X46	Y46	Z46	X47	Y47	Z47	X48	Y48	Z48	X49	Y49	Z49	X50	Y50	Z50	X51	Y51	Z51	X52	Y52	Z52	X53	Y53	Z53	X54	Y54	Z54	X55	Y55	Z55	X56	Y56	Z56	X57	Y57	Z57	X58	Y58	Z58	X59	Y59	Z59	X60	Y60	Z60	X61	Y61	Z61	X62	Y62	Z62	X63	Y63	Z63	X64	Y64	Z64	X65	Y65	Z65	X66	Y66	Z66	X67	Y67	Z67	X68	Y68	Z68	X69	Y69	Z69	X70	Y70	Z70	X71	Y71	Z71	X72	Y72	Z72	X73	Y73	Z73	X74	Y74	Z74	X75	Y75	Z75	X76	Y76	Z76	X77	Y77	Z77	X78	Y78	Z78	X79	Y79	Z79	X80	Y80	Z80	X81	Y81	Z81	X82	Y82	Z82	X83	Y83	Z83	X84	Y84	Z84	X85	Y85	Z85	X86	Y86	Z86	X87	Y87	Z87	X88	Y88	Z88	X89	Y89	Z89	X90	Y90	Z90	

2	0.008333	795.788391	1614.915405	-192.745087	802.099976	1616.310913	-298.830444	650.600342	1544.612549	-187.148972	647.644287	1546.378784	-326.239044	628.387695	1421.017334	-253.292557	626.518738	1125.898926	-252.935776	768.700989	1352.374878	-251.074722	819.821899	1144.582886	-248.788528	785.874756	939.311157	-111.525070	784.393616	944.965393	-381.996796	616.444702	973.278992	-185.269989	613.626831	984.712341	-296.013367	747.988953	717.903137	-61.140190	781.746704	650.019287	-100.451195	728.141541	590.898499	-86.253624	819.794800	725.541504	-160.843887	782.040466	671.023376	-216.399796	793.068237	594.879456	-173.860184	671.714661	448.492371	-224.375687	701.525024	451.230927	-107.250488	691.336853	333.020416	-188.263397	698.859436	269.270203	-121.595039	678.467102	202.701324	-177.045441	664.412109	351.910858	-86.645195	606.941101	289.528473	-108.165138	659.407898	222.212372	-102.599678	650.224609	107.556381	-205.130798	634.890503	88.362343	-124.406082	578.092224	67.693985	-169.614838	783.304016	48.066090	-199.379501	791.107727	57.347298	-158.865234	770.705139	47.006634	-106.048927	777.523071	54.903568	-306.559204	781.806458	56.782291	-360.047791	754.148254	38.835377	-402.340149	574.026917	64.393463	-322.981506	645.152344	98.235374	-286.545563	626.151184	95.323761	-363.861359	699.880249	371.188629	-304.851288	713.452820	304.802948	-356.077118	679.060547	241.550507	-310.359711	660.444092	315.684906	-408.141235	602.818665	255.872543	-380.680634	650.251282	186.514069	-381.717865	672.104553	437.202545	-276.692413	683.642090	450.710968	-396.610504	689.449158	735.585876	-440.900940	745.882935	675.308777	-419.633728	698.146790	607.200378	-411.481232	798.527039	807.316406	-398.821960	814.063049	738.542908	-343.600891	784.765381	669.944214	-392.737091	695.861511	1402.999878	-392.579651	774.450623	1284.520386	-403.015289	624.141357	1245.817383	-387.494263	679.682556	1291.396606	-476.478546	751.740601	1289.526367	-520.099854	756.763245	1202.063354	-542.203979	823.815918	1128.722900	-541.570618	823.275940	1164.007568	-593.192322	899.554321	1104.507202	-661.160156	943.139343	1135.585205	-631.443665	905.598511	1141.726807	-643.662231	984.423584	1060.209229	-709.973145	1021.508545	1060.802490	-659.559082	669.958069	1398.547119	-110.406303	761.819031	1290.409790	-109.482018	625.107422	1245.337769	-102.708801	660.371216	1288.965332	-31.761301	726.837769	1296.571045	21.630116	730.205139	1215.791382	53.498920	791.675842	1125.374146	58.036018	799.935974	1175.847534	110.320396	897.970093	1097.172852	181.730484	903.828369	1140.679565	157.267471	941.390442	1131.323364	138.741791	965.213806	1062.689453	212.405228	1014.527100	1077.954834	167.377808	635.651764	96.779568	-325.203461	642.557556	97.959362	-164.768440	823.545929	1146.365234	-567.381470	795.805908	1150.610840	84.178207	714.536108	865.186051	-344.582079	715.593593	861.149112	-151.474148	677.873322	443.956757	-336.651459	686.619843	449.861649	-165.813087	699.295990	1265.168884	-395.254776	693.463226	1267.873779	-106.095409	1002.966064	1060.505859	-684.766113	989.870453	1070.322144	189.891518	
3	0.016667	795.626282	1614.933838	-192.638672	802.014526	1616.350220	-298.740234	650.463440	1544.580933	-187.088547	647.565857	1546.321167	-326.219208	628.318420	1420.964966	-253.275665	626.370850	1125.929565	-252.979782	768.616455	1352.359619	-251.015396	819.738831	1144.564819	-248.718124	785.775452	939.311035	-111.469345	784.305969	944.983337	-381.991058	616.397034	973.264282	-185.264755	613.569702	984.705139	-296.008698	747.962341	717.895020	-61.136501	781.703674	650.029358	-100.425491	728.132019	590.872009	-86.214645	819.748962	725.572449	-160.824356	782.108826	671.059387	-216.351135	793.025513	594.901184	-173.905930	671.802490	448.504700	-224.366364	701.503235	451.236938	-107.236870	691.310791	333.003937	-188.222717	698.825623	269.259521	-121.555435	678.521118	202.716980	-177.000626	664.446350	351.899170	-86.647804	606.929077	289.503235	-108.188293	659.362305	222.236084	-102.581955	650.224731	107.576523	-205.120926	634.909241	88.342049	-124.434128	578.048157	67.766693	-169.570389	783.334412	48.083420	-199.391022	791.131348	57.338696	-158.834503	770.740479	47.022762	-106.116226	777.539856	54.893955	-306.586700	781.834534	56.784283	-360.011047	754.175598	38.841869	-402.311432	574.016418	64.362984	-322.973236	645.098694	98.239960	-286.538177	626.214905	95.335915	-363.916992	699.920349	371.153809	-304.849640	713.461731	304.848969	-356.081116	679.101257	241.576492	-310.335846	660.412170	315.574005	-408.126495	602.829102	255.897095	-380.675903	650.261353	186.507629	-381.712219	672.618835	437.344543	-276.120758	683.627625	450.714325	-396.548401	689.397827	735.580322	-440.878754	745.878296	675.326904	-419.601196	698.157654	607.183411	-411.505646	798.495056	807.309692	-398.768585	814.063171	738.537292	-343.568817	784.768372	669.973816	-392.723541	695.814880	1403.001343	-392.528931	774.427429	1284.542114	-402.926971	624.060547	1245.830078	-387.455719	679.682617	1291.390015	-476.449524	751.825562	1289.521484	-520.060242	756.855225	1202.037964	-542.168701	823.818420	1128.729492	-541.472595	823.388489	1163.982056	-593.100891	899.690002	1104.466064	-661.021423	943.762329	1135.708740	-631.652893	905.690369	1141.670410	-643.528320	984.559204	1060.137817	-709.726562	1021.622620	1060.748047	-659.315430	669.821716	1398.540283	-110.398468	761.659790	1290.371948	-109.376167	624.967834	1245.327881	-102.674164	660.229187	1288.962280	-31.769590	726.695374	1296.575684	21.587294	730.101929	1215.809326	53.537384	791.605103	1125.375366	57.938301	799.828857	1175.859863	110.264404	897.946533	1097.244019	181.710403	903.762878	1140.791382	157.289673	941.354919	1131.452148	138.726669	965.271301	1062.809448	212.338425	1014.518433	1078.120239	167.354599	635.656799	96.787937	-325.227585	642.566986	97.959286	-164.777527	823.603455	1146.355774	-567.286743	795.716980	1150.617615	84.101353	714.459094	865.180133	-344.576407	715.508242	861.130353	-151.435500	678.123230	444.029434	-336.334579	686.652863	449.870819	-165.801617	699.243988	1265.186096	-395.191345	693.313812	1267.849915	-106.025166	1003.090912	1060.442932	-684.520996	989.894867	1070.464844	189.846512	
4	0.025000	795.496704	1614.942749	-192.514938	801.927917	1616.390869	-298.610504	650.385925	1544.520630	-187.036575	647.484253	1546.271240	-326.128143	628.200073	1421.003662	-253.314713	626.234985	1125.921509	-252.956741	768.525818	1352.336670	-250.959335	819.680359	1144.585205	-248.687042	786.208923	939.551697	-111.251122	784.247681	945.010254	-381.973236	616.314331	973.227600	-185.231949	613.486633	984.697327	-295.988434	747.893860	717.899109	-61.091801	781.695251	650.055176	-100.393570	728.072266	590.891602	-86.210419	819.729187	725.585510	-160.798996	782.089355	671.048279	-216.343719	792.993042	594.926880	-173.792358	671.818420	448.500305	-224.354126	701.478455	451.244965	-107.223267	691.342712	333.022614	-188.213760	698.831543	269.267578	-121.552231	678.524414	202.703049	-176.990067	664.395874	351.892670	-86.662651	606.891174	289.527802	-108.225334	659.344849	222.245972	-102.500046	650.243103	107.554260	-205.133881	634.923218	88.342651	-124.396606	578.084656	67.703529	-169.617615	783.350220	48.186447	-199.271744	791.127319	57.339924	-158.821518	770.754395	47.014595	-106.065071	777.537231	54.891827	-306.568146	781.829529	56.812691	-360.008484	754.178772	38.873627	-402.340363	574.033325	64.392433	-323.017120	645.150940	98.250244	-286.531921	626.188171	95.341713	-363.874695	699.937866	371.158478	-304.832397	713.472107	304.836456	-356.072784	679.090515	241.564636	-310.331604	660.470886	315.601288	-408.122040	602.829712	255.916367	-380.648285	650.278259	186.519958	-381.709808	672.689026	437.348358	-276.066254	683.673035	450.685394	-396.480133	689.401733	735.573914	-440.887970	745.854980	675.294189	-419.570129	698.260071	607.277222	-411.650726	798.473572	807.354370	-398.736084	814.057800	738.569336	-343.571228	784.768066	670.001648	-392.711243	695.749207	1402.982300	-392.461212	774.355286	1284.515747	-402.842621	624.013245	1245.856689	-387.486023	679.772278	1291.477173	-476.497375	751.885681	1289.512329	-519.968506	756.897400	1202.014404	-542.049744	823.881897	1128.678589	-541.333130	823.461609	1163.965332	-592.944458	899.819763	1104.424194	-660.821533	943.877563	1135.694214	-631.458313	905.846802	1141.597778	-643.368042	984.728455	1060.064331	-709.466431	1021.731995	1060.721069	-659.059448	669.670776	1398.548340	-110.398804	761.511658	1290.393677	-109.351402	624.801025	1245.317627	-102.709496	659.964966	1289.243774	-31.177942	726.576233	1296.601685	21.617281	732.106201	1215.561768	54.575802	791.524658	1125.461304	57.950947	801.170227	1175.443848	111.073898	897.937134	1097.317749	181.693085	903.715332	1140.868896	157.237503	941.313049	1131.560425	138.701447	965.241516	1062.931519	212.324219	1014.492249	1078.280884	167.277252	635.669556	96.795979	-325.203308	642.583160	97.948456	-164.765244	823.671753	1146.321960	-567.138794	796.347443	1150.452576	84.512423	714.504461	865.099833	-344.337002	715.904626	861.202874	-151.063757	678.181030	444.016876	-336.273193	686.648438	449.872635	-165.788696	699.184265	1265.186218	-395.164322	693.156342	1267.855652	-106.030449	1003.230225	1060.392700	-684.262939	989.866882	1070.606201	189.800735	
5	0.033333	795.390320	1614.972046	-192.390778	801.786499	1616.426514	-298.470673	650.274353	1544.442139	-186.985809	647.464233	1546.252075	-326.112976	628.127197	1420.999634	-253.302887	626.092407	1125.939697	-252.933853	768.387085	1352.313354	-250.884964	819.577026	1144.538574	-248.601517	788.589172	939.524475	-110.883942	784.244202	945.028320	-381.964081	616.212219	973.153687	-185.245346	613.410828	984.651062	-295.944122	747.839661	717.910095	-61.038872	781.676697	650.054565	-100.362656	728.071777	590.899597	-86.171555	819.713684	725.579529	-160.753723	782.039551	671.073486	-216.287338	793.006531	594.960266	-173.746826	671.797791	448.523590	-224.347656	701.434143	451.255981	-107.188492	691.298279	333.011108	-188.198135	698.786011	269.291443	-121.546455	678.496338	202.679703	-176.978516	664.347473	351.880737	-86.599434	606.870056	289.485596	-108.233231	659.338196	222.235947	-102.552574	650.222595	107.529900	-205.145660	634.894836	88.315926	-124.412827	578.049133	67.738068	-169.588730	783.366394	48.073643	-199.367935	791.126038	57.350616	-158.844543	770.765198	47.009289	-106.069191	777.534607	54.889423	-306.574341	781.818604	56.821815	-360.048676	754.163208	38.853310	-402.294586	574.015381	64.446136	-323.006348	645.196899	98.217339	-286.499847	626.198547	95.312927	-363.864960	699.935120	371.172852	-304.808411	713.471924	304.835083	-356.072327	679.036194	241.556000	-310.319458	660.487915	315.641144	-408.106720	602.820679	255.919724	-380.655975	650.265320	186.510696	-381.685242	672.687073	437.326752	-276.090668	683.687927	450.715942	-396.511475	689.398987	735.568176	-440.893646	745.853577	675.292664	-419.568726	698.212585	607.192566	-411.499023	798.478394	807.388367	-398.728851	814.004517	738.565918	-343.482269	784.800964	670.001160	-392.741180	695.735596	1402.982056	-392.466248	774.337585	1284.483521	-402.807495	623.959412	1245.857056	-387.535706	679.737183	1291.375488	-476.406189	751.910583	1289.473145	-519.887268	756.992981	1201.971680	-541.921814	823.981689	1128.632935	-541.227905	823.547424	1163.896240	-592.785583	899.916504	1104.356934	-660.634155	943.983826	1135.627808	-631.236328	905.915527	1141.500610	-643.133301	984.884644	1059.963013	-709.230408	1021.877075	1060.720337	-658.822205	669.540161	1398.534668	-110.398361	761.311218	1290.369507	-109.356468	624.645508	1245.367798	-102.709267	659.833801	1289.187622	-31.246443	726.453430	1296.618042	21.622383	732.087830	1215.594360	54.591072	791.488892	1125.464355	58.092133	801.124878	1175.475708	111.125000	897.928650	1097.392090	181.676010	903.658081	1140.946289	157.274551	941.259155	1131.653442	138.668747	965.272583	1062.992676	212.256180	1014.485657	1078.428833	167.248627	635.697723	96.765133	-325.182404	642.558716	97.922913	-164.779243	823.764557	1146.264587	-567.006744	796.306885	1150.470032	84.608566	714.685994	864.914960	-343.663731	717.787610	860.986092	-150.155722	678.187500	444.021347	-336.301071	686.615967	449.889786	-165.768074	699.148499	1265.170288	-395.171600	692.978363	1267.868652	-106.032867	1003.380859	1060.341675	-684.026306	989.879120	1070.710754	189.752403	
